<?xml version="1.0" encoding="iso-8859-1"?>

<!DOCTYPE svg PUBLIC "-//W3C//DTD SVG 1.1//EN" "http://www.w3.org/Graphics/SVG/1.1/DTD/svg11.dtd">
<!-- Uploaded to: SVG Repo, www.svgrepo.com, Generator: SVG Repo Mixer Tools -->
<svg height="800px" width="800px" version="1.1" id="_x36_" xmlns="http://www.w3.org/2000/svg" xmlns:xlink="http://www.w3.org/1999/xlink" 
	 viewBox="0 0 512 512"  xml:space="preserve">
<g>
	<g>
		<g>
			<path style="fill:#484747;" d="M319.861,338.646c-7.987-4.437-17.232-7.026-27.068-7.026c-9.836,0-19.081,2.589-27.068,7.026
				c-17.084,9.54-28.621,27.808-28.621,48.663c0,30.692,24.923,55.689,55.689,55.689c30.692,0,55.615-24.997,55.615-55.689
				C348.408,366.454,336.871,348.186,319.861,338.646z M292.794,408.387c-11.685,0-21.152-9.466-21.152-21.077
				s9.467-21.078,21.152-21.078c11.611,0,21.077,9.467,21.077,21.078S304.404,408.387,292.794,408.387z"/>
		</g>
		<g>
			<path style="fill:#484747;" d="M137.485,338.646c-0.444-0.222-0.814-0.444-1.257-0.665c-3.846-2.071-7.987-3.624-12.277-4.659
				c-4.29-1.109-8.801-1.701-13.46-1.701c-9.762,0-19.007,2.589-26.994,7.026c-17.084,9.467-28.695,27.734-28.695,48.663
				c0,6.804,1.184,13.238,3.476,19.228c5.547,15.235,17.676,27.364,32.985,32.985c5.99,2.219,12.499,3.476,19.229,3.476
				c30.692,0,55.689-24.997,55.689-55.689C166.18,366.38,154.569,348.113,137.485,338.646z M110.491,408.387
				c-11.611,0-21.077-9.466-21.077-21.077s9.466-21.078,21.077-21.078s21.077,9.467,21.077,21.078S122.102,408.387,110.491,408.387z
				"/>
		</g>
		<g>
			<path style="fill:#FBFBFC;" d="M394.144,176.691H21.773c-9.55,0-17.293-7.742-17.293-17.293c0-9.551,7.743-17.293,17.293-17.293
				h372.371c9.55,0,17.293,7.742,17.293,17.293C411.437,168.948,403.694,176.691,394.144,176.691z"/>
		</g>
		<g>
			<path style="fill:#FBFBFC;" d="M99.897,263.586c-9.55,0-17.293-7.742-17.293-17.293V73.21c0-9.551,7.743-17.293,17.293-17.293
				c9.55,0,17.293,7.742,17.293,17.293v173.083C117.19,255.844,109.447,263.586,99.897,263.586z"/>
		</g>
		<g>
			<path style="fill:#FBFBFC;" d="M206.536,263.586c-9.55,0-17.293-7.742-17.293-17.293V73.21c0-9.551,7.743-17.293,17.293-17.293
				c9.55,0,17.293,7.742,17.293,17.293v173.083C223.829,255.844,216.087,263.586,206.536,263.586z"/>
		</g>
		<g>
			<path style="fill:#FBFBFC;" d="M313.176,287.001c-9.55,0-17.293-7.742-17.293-17.293V75.337c0-9.551,7.742-17.293,17.293-17.293
				c9.55,0,17.293,7.742,17.293,17.293v194.371C330.469,279.259,322.726,287.001,313.176,287.001z"/>
		</g>
		<polygon style="fill:none;" points="417.904,132.527 438.595,34.581 436.206,34.581 		"/>
		<path style="fill:#B9677A;" d="M512,17.306c0,5.399-2.44,10.132-6.36,13.313c-2.958,2.514-6.804,3.993-10.945,3.993h-56.133
			v-0.074l4.216-19.968L445.883,0h48.811c0.518,0,1.035,0,1.553,0.074c2.958,0.222,5.769,1.257,8.061,2.884
			c0.961,0.666,1.775,1.331,2.588,2.145c2.884,2.81,4.659,6.508,5.029,10.65C512,16.271,512,16.788,512,17.306z"/>
		<path style="fill:#FBFBFC;" d="M445.883,0l-3.106,14.569l-4.216,19.968v0.074h-2.367l-18.267,97.918l-38.532,206.117H38.161
			c-9.54,0-17.306-7.765-17.306-17.306c0-9.541,7.765-17.306,17.306-17.306h307.289l19.007,2.81
			c0.887,0.148,1.775,0.222,2.588,0.222c8.431,0,15.827-6.212,17.084-14.791c1.405-9.392-5.103-18.193-14.569-19.598l-12.647-1.923
			l17.602-94.072l6.434-34.612l11.242-60.127h16.862c9.54,0,17.232-7.765,17.232-17.306c0-9.245-7.248-16.788-16.345-17.232
			c-0.296-0.074-0.592-0.074-0.887-0.074h-10.428L407.5,0H445.883z"/>
		<polygon style="fill:#FBFBFC;" points="398.625,47.332 396.036,61.31 392.191,81.943 34.611,81.943 34.611,223.052 
			82.609,230.152 117.221,235.255 189.255,245.905 208.557,248.789 223.2,250.934 223.274,250.934 295.9,261.732 303.517,262.841 
			330.437,266.834 330.659,266.834 356.914,270.754 350.701,304.035 345.451,304.035 178.087,279.259 0,252.857 0,47.332 		"/>
		<path style="fill:#FBFBFC;" d="M409.018,81.928c9.55,0,17.293-7.742,17.293-17.293c0-9.551-7.743-17.293-17.293-17.293h-10.381
			l-6.463,34.586H409.018z"/>
		<path style="fill:#FBFBFC;" d="M367.045,307.063c8.428,0,15.812-6.173,17.085-14.761c1.4-9.447-5.124-18.241-14.571-19.641
			l-12.674-1.878l-6.216,33.264h-5.252l19.072,2.826C365.348,307.001,366.201,307.063,367.045,307.063z"/>
	</g>
	<polygon style="fill:none;" points="303.512,266.869 329.927,270.783 347.509,176.69 303.512,176.69 	"/>
	<polygon style="fill:none;" points="318.456,304.035 126.318,304.035 151.167,279.259 	"/>
	<path style="opacity:0.1;" d="M511.926,15.753c-0.37-4.141-2.145-7.839-5.029-10.65c-0.739-0.814-1.553-1.553-2.588-2.145
		c-2.293-1.627-5.103-2.662-8.061-2.884C495.73,0,495.212,0,494.694,0h-37.348l-14.57,14.569l-67.374,67.374h16.788l-11.242,60.127
		h-50.438v-15.161L315.35,142.07L295.9,161.447l-15.235,15.235H295.9v85.05l-72.625-10.798H223.2
		c0.37-1.479,0.666-3.033,0.666-4.659v-12.721l-15.309,15.235l-11.685,11.759l-18.785,18.711l167.363,24.775H153.311l-29.36,29.287
		l-4.659,4.659h95.034v0.665h165.071l38.532-206.117l18.267-97.918v-0.074h58.5c4.142,0,7.987-1.479,10.945-3.919
		c3.92-3.181,6.36-7.913,6.36-13.313C512,16.788,512,16.271,511.926,15.753z M330.659,266.834h-0.148v-90.153h43.93l-17.528,94.072
		L330.659,266.834z"/>
</g>
</svg>