<svg width="522" height="132" viewBox="0 0 522 132" fill="none" xmlns="http://www.w3.org/2000/svg">
<path d="M12.5923 112V42.1818H23.1264V102.932H54.7628V112H12.5923ZM99.1321 90.2841V59.6364H109.359V112H99.3366V102.932H98.7912C97.5866 105.727 95.6548 108.057 92.9957 109.92C90.3594 111.761 87.0753 112.682 83.1435 112.682C79.7798 112.682 76.8026 111.943 74.2116 110.466C71.6435 108.966 69.6207 106.75 68.1435 103.818C66.6889 100.886 65.9616 97.2614 65.9616 92.9432V59.6364H76.1548V91.7159C76.1548 95.2841 77.1435 98.125 79.1207 100.239C81.098 102.352 83.6662 103.409 86.8253 103.409C88.7344 103.409 90.6321 102.932 92.5185 101.977C94.4276 101.023 96.0071 99.5795 97.2571 97.6477C98.5298 95.7159 99.1548 93.2614 99.1321 90.2841ZM133.249 80.9091V112H123.055V59.6364H132.839V68.1591H133.487C134.692 65.3864 136.578 63.1591 139.146 61.4773C141.737 59.7955 144.999 58.9545 148.93 58.9545C152.499 58.9545 155.624 59.7045 158.305 61.2045C160.987 62.6818 163.067 64.8864 164.544 67.8182C166.021 70.75 166.76 74.375 166.76 78.6932V112H156.567V79.9205C156.567 76.125 155.578 73.1591 153.601 71.0227C151.624 68.8636 148.908 67.7841 145.453 67.7841C143.089 67.7841 140.987 68.2955 139.146 69.3182C137.328 70.3409 135.885 71.8409 134.817 73.8182C133.771 75.7727 133.249 78.1364 133.249 80.9091ZM202.487 113.057C197.419 113.057 193.055 111.909 189.396 109.614C185.76 107.295 182.964 104.102 181.01 100.034C179.055 95.9659 178.078 91.3068 178.078 86.0568C178.078 80.7386 179.078 76.0455 181.078 71.9773C183.078 67.8864 185.896 64.6932 189.533 62.3977C193.169 60.1023 197.453 58.9545 202.385 58.9545C206.362 58.9545 209.908 59.6932 213.021 61.1705C216.135 62.625 218.646 64.6705 220.555 67.3068C222.487 69.9432 223.635 73.0227 223.999 76.5455H214.078C213.533 74.0909 212.283 71.9773 210.328 70.2045C208.396 68.4318 205.805 67.5455 202.555 67.5455C199.714 67.5455 197.226 68.2955 195.089 69.7955C192.976 71.2727 191.328 73.3864 190.146 76.1364C188.964 78.8636 188.374 82.0909 188.374 85.8182C188.374 89.6364 188.953 92.9318 190.112 95.7045C191.271 98.4773 192.908 100.625 195.021 102.148C197.158 103.67 199.669 104.432 202.555 104.432C204.487 104.432 206.237 104.08 207.805 103.375C209.396 102.648 210.726 101.614 211.794 100.273C212.885 98.9318 213.646 97.3182 214.078 95.4318H223.999C223.635 98.8182 222.533 101.841 220.692 104.5C218.851 107.159 216.385 109.25 213.294 110.773C210.226 112.295 206.624 113.057 202.487 113.057ZM245.092 80.9091V112H234.899V42.1818H244.956V68.1591H245.604C246.831 65.3409 248.706 63.1023 251.229 61.4432C253.751 59.7841 257.047 58.9545 261.115 58.9545C264.706 58.9545 267.842 59.6932 270.524 61.1705C273.229 62.6477 275.32 64.8523 276.797 67.7841C278.297 70.6932 279.047 74.3295 279.047 78.6932V112H268.854V79.9205C268.854 76.0795 267.865 73.1023 265.888 70.9886C263.911 68.8523 261.161 67.7841 257.638 67.7841C255.229 67.7841 253.07 68.2955 251.161 69.3182C249.274 70.3409 247.786 71.8409 246.695 73.8182C245.626 75.7727 245.092 78.1364 245.092 80.9091ZM317.092 59.6364V67.8182H288.49V59.6364H317.092ZM296.161 47.0909H306.354V96.625C306.354 98.6023 306.649 100.091 307.24 101.091C307.831 102.068 308.592 102.739 309.524 103.102C310.479 103.443 311.513 103.614 312.626 103.614C313.445 103.614 314.161 103.557 314.774 103.443C315.388 103.33 315.865 103.239 316.206 103.17L318.047 111.591C317.456 111.818 316.615 112.045 315.524 112.273C314.433 112.523 313.07 112.659 311.433 112.682C308.751 112.727 306.251 112.25 303.933 111.25C301.615 110.25 299.74 108.705 298.308 106.614C296.876 104.523 296.161 101.898 296.161 98.7386V47.0909ZM334.811 131.636C333.288 131.636 331.902 131.511 330.652 131.261C329.402 131.034 328.47 130.784 327.857 130.511L330.311 122.159C332.175 122.659 333.834 122.875 335.288 122.807C336.743 122.739 338.027 122.193 339.141 121.17C340.277 120.148 341.277 118.477 342.141 116.159L343.402 112.682L324.243 59.6364H335.152L348.413 100.273H348.959L362.22 59.6364H373.163L351.584 118.989C350.584 121.716 349.311 124.023 347.766 125.909C346.22 127.818 344.379 129.25 342.243 130.205C340.107 131.159 337.629 131.636 334.811 131.636ZM382.743 112V59.6364H392.527V68.1591H393.175C394.266 65.2727 396.05 63.0227 398.527 61.4091C401.004 59.7727 403.97 58.9545 407.425 58.9545C410.925 58.9545 413.857 59.7727 416.22 61.4091C418.607 63.0455 420.368 65.2955 421.504 68.1591H422.05C423.3 65.3636 425.288 63.1364 428.016 61.4773C430.743 59.7955 433.993 58.9545 437.766 58.9545C442.516 58.9545 446.391 60.4432 449.391 63.4205C452.413 66.3977 453.925 70.8864 453.925 76.8864V112H443.732V77.8409C443.732 74.2955 442.766 71.7273 440.834 70.1364C438.902 68.5455 436.595 67.75 433.913 67.75C430.595 67.75 428.016 68.7727 426.175 70.8182C424.334 72.8409 423.413 75.4432 423.413 78.625V112H413.254V77.1932C413.254 74.3523 412.368 72.0682 410.595 70.3409C408.822 68.6136 406.516 67.75 403.675 67.75C401.743 67.75 399.959 68.2614 398.322 69.2841C396.709 70.2841 395.402 71.6818 394.402 73.4773C393.425 75.2727 392.936 77.3523 392.936 79.7159V112H382.743ZM490.155 113.057C484.996 113.057 480.553 111.955 476.825 109.75C473.121 107.523 470.257 104.398 468.234 100.375C466.234 96.3295 465.234 91.5909 465.234 86.1591C465.234 80.7955 466.234 76.0682 468.234 71.9773C470.257 67.8864 473.075 64.6932 476.689 62.3977C480.325 60.1023 484.575 58.9545 489.439 58.9545C492.393 58.9545 495.257 59.4432 498.03 60.4205C500.803 61.3977 503.291 62.9318 505.496 65.0227C507.7 67.1136 509.439 69.8295 510.712 73.1705C511.984 76.4886 512.621 80.5227 512.621 85.2727V88.8864H470.996V81.25H502.632C502.632 78.5682 502.087 76.1932 500.996 74.125C499.905 72.0341 498.371 70.3864 496.393 69.1818C494.439 67.9773 492.143 67.375 489.507 67.375C486.643 67.375 484.143 68.0795 482.007 69.4886C479.893 70.875 478.257 72.6932 477.098 74.9432C475.962 77.1705 475.393 79.5909 475.393 82.2045V88.1705C475.393 91.6705 476.007 94.6477 477.234 97.1023C478.484 99.5568 480.223 101.432 482.45 102.727C484.678 104 487.28 104.636 490.257 104.636C492.189 104.636 493.95 104.364 495.541 103.818C497.132 103.25 498.507 102.409 499.666 101.295C500.825 100.182 501.712 98.8068 502.325 97.1705L511.973 98.9091C511.2 101.75 509.814 104.239 507.814 106.375C505.837 108.489 503.348 110.136 500.348 111.318C497.371 112.477 493.973 113.057 490.155 113.057Z" fill="#F5F5F5"/>
<g clip-path="url(#clip0_102_35)">
<path d="M298.719 34.6724L302.719 31.6224L306.719 34.6724L305.219 29.7224L309.219 26.8724H304.319L302.719 21.6724L301.119 26.8724H296.219L300.219 29.7224L298.719 34.6724ZM302.719 38.6724C301.336 38.6724 300.036 38.4099 298.819 37.8849C297.603 37.3599 296.544 36.6474 295.644 35.7474C294.744 34.8474 294.032 33.789 293.507 32.5724C292.982 31.3557 292.719 30.0557 292.719 28.6724C292.719 27.289 292.982 25.989 293.507 24.7724C294.032 23.5557 294.744 22.4974 295.644 21.5974C296.544 20.6974 297.603 19.9849 298.819 19.4599C300.036 18.9349 301.336 18.6724 302.719 18.6724C304.103 18.6724 305.403 18.9349 306.619 19.4599C307.836 19.9849 308.894 20.6974 309.794 21.5974C310.694 22.4974 311.407 23.5557 311.932 24.7724C312.457 25.989 312.719 27.289 312.719 28.6724C312.719 30.0557 312.457 31.3557 311.932 32.5724C311.407 33.789 310.694 34.8474 309.794 35.7474C308.894 36.6474 307.836 37.3599 306.619 37.8849C305.403 38.4099 304.103 38.6724 302.719 38.6724ZM302.719 36.6724C304.953 36.6724 306.844 35.8974 308.394 34.3474C309.944 32.7974 310.719 30.9057 310.719 28.6724C310.719 26.439 309.944 24.5474 308.394 22.9974C306.844 21.4474 304.953 20.6724 302.719 20.6724C300.486 20.6724 298.594 21.4474 297.044 22.9974C295.494 24.5474 294.719 26.439 294.719 28.6724C294.719 30.9057 295.494 32.7974 297.044 34.3474C298.594 35.8974 300.486 36.6724 302.719 36.6724Z" fill="#49454F"/>
</g>
<defs>
<clipPath id="clip0_102_35">
<rect x="274.719" y="0.672363" width="56" height="56" rx="28" fill="white"/>
</clipPath>
</defs>
</svg>
