<svg width="513" height="133" viewBox="0 0 513 133" fill="none" xmlns="http://www.w3.org/2000/svg">
<path d="M8.09233 110V40.1818H18.6264V100.932H50.2628V110H8.09233ZM94.6321 88.2841V57.6364H104.859V110H94.8366V100.932H94.2912C93.0866 103.727 91.1548 106.057 88.4957 107.92C85.8594 109.761 82.5753 110.682 78.6435 110.682C75.2798 110.682 72.3026 109.943 69.7116 108.466C67.1435 106.966 65.1207 104.75 63.6435 101.818C62.1889 98.8864 61.4616 95.2614 61.4616 90.9432V57.6364H71.6548V89.7159C71.6548 93.2841 72.6435 96.125 74.6207 98.2386C76.598 100.352 79.1662 101.409 82.3253 101.409C84.2344 101.409 86.1321 100.932 88.0185 99.9773C89.9276 99.0227 91.5071 97.5795 92.7571 95.6477C94.0298 93.7159 94.6548 91.2614 94.6321 88.2841ZM128.749 78.9091V110H118.555V57.6364H128.339V66.1591H128.987C130.192 63.3864 132.078 61.1591 134.646 59.4773C137.237 57.7955 140.499 56.9545 144.43 56.9545C147.999 56.9545 151.124 57.7045 153.805 59.2045C156.487 60.6818 158.567 62.8864 160.044 65.8182C161.521 68.75 162.26 72.375 162.26 76.6932V110H152.067V77.9205C152.067 74.125 151.078 71.1591 149.101 69.0227C147.124 66.8636 144.408 65.7841 140.953 65.7841C138.589 65.7841 136.487 66.2955 134.646 67.3182C132.828 68.3409 131.385 69.8409 130.317 71.8182C129.271 73.7727 128.749 76.1364 128.749 78.9091ZM197.987 111.057C192.919 111.057 188.555 109.909 184.896 107.614C181.26 105.295 178.464 102.102 176.51 98.0341C174.555 93.9659 173.578 89.3068 173.578 84.0568C173.578 78.7386 174.578 74.0455 176.578 69.9773C178.578 65.8864 181.396 62.6932 185.033 60.3977C188.669 58.1023 192.953 56.9545 197.885 56.9545C201.862 56.9545 205.408 57.6932 208.521 59.1705C211.635 60.625 214.146 62.6705 216.055 65.3068C217.987 67.9432 219.135 71.0227 219.499 74.5455H209.578C209.033 72.0909 207.783 69.9773 205.828 68.2045C203.896 66.4318 201.305 65.5455 198.055 65.5455C195.214 65.5455 192.726 66.2955 190.589 67.7955C188.476 69.2727 186.828 71.3864 185.646 74.1364C184.464 76.8636 183.874 80.0909 183.874 83.8182C183.874 87.6364 184.453 90.9318 185.612 93.7045C186.771 96.4773 188.408 98.625 190.521 100.148C192.658 101.67 195.169 102.432 198.055 102.432C199.987 102.432 201.737 102.08 203.305 101.375C204.896 100.648 206.226 99.6136 207.294 98.2727C208.385 96.9318 209.146 95.3182 209.578 93.4318H219.499C219.135 96.8182 218.033 99.8409 216.192 102.5C214.351 105.159 211.885 107.25 208.794 108.773C205.726 110.295 202.124 111.057 197.987 111.057ZM240.592 78.9091V110H230.399V40.1818H240.456V66.1591H241.104C242.331 63.3409 244.206 61.1023 246.729 59.4432C249.251 57.7841 252.547 56.9545 256.615 56.9545C260.206 56.9545 263.342 57.6932 266.024 59.1705C268.729 60.6477 270.82 62.8523 272.297 65.7841C273.797 68.6932 274.547 72.3295 274.547 76.6932V110H264.354V77.9205C264.354 74.0795 263.365 71.1023 261.388 68.9886C259.411 66.8523 256.661 65.7841 253.138 65.7841C250.729 65.7841 248.57 66.2955 246.661 67.3182C244.774 68.3409 243.286 69.8409 242.195 71.8182C241.126 73.7727 240.592 76.1364 240.592 78.9091ZM312.592 57.6364V65.8182H283.99V57.6364H312.592ZM291.661 45.0909H301.854V94.625C301.854 96.6023 302.149 98.0909 302.74 99.0909C303.331 100.068 304.092 100.739 305.024 101.102C305.979 101.443 307.013 101.614 308.126 101.614C308.945 101.614 309.661 101.557 310.274 101.443C310.888 101.33 311.365 101.239 311.706 101.17L313.547 109.591C312.956 109.818 312.115 110.045 311.024 110.273C309.933 110.523 308.57 110.659 306.933 110.682C304.251 110.727 301.751 110.25 299.433 109.25C297.115 108.25 295.24 106.705 293.808 104.614C292.376 102.523 291.661 99.8977 291.661 96.7386V45.0909ZM330.311 129.636C328.788 129.636 327.402 129.511 326.152 129.261C324.902 129.034 323.97 128.784 323.357 128.511L325.811 120.159C327.675 120.659 329.334 120.875 330.788 120.807C332.243 120.739 333.527 120.193 334.641 119.17C335.777 118.148 336.777 116.477 337.641 114.159L338.902 110.682L319.743 57.6364H330.652L343.913 98.2727H344.459L357.72 57.6364H368.663L347.084 116.989C346.084 119.716 344.811 122.023 343.266 123.909C341.72 125.818 339.879 127.25 337.743 128.205C335.607 129.159 333.129 129.636 330.311 129.636ZM378.243 110V57.6364H388.027V66.1591H388.675C389.766 63.2727 391.55 61.0227 394.027 59.4091C396.504 57.7727 399.47 56.9545 402.925 56.9545C406.425 56.9545 409.357 57.7727 411.72 59.4091C414.107 61.0455 415.868 63.2955 417.004 66.1591H417.55C418.8 63.3636 420.788 61.1364 423.516 59.4773C426.243 57.7955 429.493 56.9545 433.266 56.9545C438.016 56.9545 441.891 58.4432 444.891 61.4205C447.913 64.3977 449.425 68.8864 449.425 74.8864V110H439.232V75.8409C439.232 72.2955 438.266 69.7273 436.334 68.1364C434.402 66.5455 432.095 65.75 429.413 65.75C426.095 65.75 423.516 66.7727 421.675 68.8182C419.834 70.8409 418.913 73.4432 418.913 76.625V110H408.754V75.1932C408.754 72.3523 407.868 70.0682 406.095 68.3409C404.322 66.6136 402.016 65.75 399.175 65.75C397.243 65.75 395.459 66.2614 393.822 67.2841C392.209 68.2841 390.902 69.6818 389.902 71.4773C388.925 73.2727 388.436 75.3523 388.436 77.7159V110H378.243ZM485.655 111.057C480.496 111.057 476.053 109.955 472.325 107.75C468.621 105.523 465.757 102.398 463.734 98.375C461.734 94.3295 460.734 89.5909 460.734 84.1591C460.734 78.7955 461.734 74.0682 463.734 69.9773C465.757 65.8864 468.575 62.6932 472.189 60.3977C475.825 58.1023 480.075 56.9545 484.939 56.9545C487.893 56.9545 490.757 57.4432 493.53 58.4205C496.303 59.3977 498.791 60.9318 500.996 63.0227C503.2 65.1136 504.939 67.8295 506.212 71.1705C507.484 74.4886 508.121 78.5227 508.121 83.2727V86.8864H466.496V79.25H498.132C498.132 76.5682 497.587 74.1932 496.496 72.125C495.405 70.0341 493.871 68.3864 491.893 67.1818C489.939 65.9773 487.643 65.375 485.007 65.375C482.143 65.375 479.643 66.0795 477.507 67.4886C475.393 68.875 473.757 70.6932 472.598 72.9432C471.462 75.1705 470.893 77.5909 470.893 80.2045V86.1705C470.893 89.6705 471.507 92.6477 472.734 95.1023C473.984 97.5568 475.723 99.4318 477.95 100.727C480.178 102 482.78 102.636 485.757 102.636C487.689 102.636 489.45 102.364 491.041 101.818C492.632 101.25 494.007 100.409 495.166 99.2955C496.325 98.1818 497.212 96.8068 497.825 95.1705L507.473 96.9091C506.7 99.75 505.314 102.239 503.314 104.375C501.337 106.489 498.848 108.136 495.848 109.318C492.871 110.477 489.473 111.057 485.655 111.057Z" fill="black" fill-opacity="0.49"/>
<g clip-path="url(#clip0_101_395)">
<path d="M293.5 34L297.5 30.95L301.5 34L300 29.05L304 26.2H299.1L297.5 21L295.9 26.2H291L295 29.05L293.5 34ZM297.5 38C296.117 38 294.817 37.7375 293.6 37.2125C292.383 36.6875 291.325 35.975 290.425 35.075C289.525 34.175 288.813 33.1167 288.288 31.9C287.762 30.6833 287.5 29.3833 287.5 28C287.5 26.6167 287.762 25.3167 288.288 24.1C288.813 22.8833 289.525 21.825 290.425 20.925C291.325 20.025 292.383 19.3125 293.6 18.7875C294.817 18.2625 296.117 18 297.5 18C298.883 18 300.183 18.2625 301.4 18.7875C302.617 19.3125 303.675 20.025 304.575 20.925C305.475 21.825 306.187 22.8833 306.712 24.1C307.237 25.3167 307.5 26.6167 307.5 28C307.5 29.3833 307.237 30.6833 306.712 31.9C306.187 33.1167 305.475 34.175 304.575 35.075C303.675 35.975 302.617 36.6875 301.4 37.2125C300.183 37.7375 298.883 38 297.5 38ZM297.5 36C299.733 36 301.625 35.225 303.175 33.675C304.725 32.125 305.5 30.2333 305.5 28C305.5 25.7667 304.725 23.875 303.175 22.325C301.625 20.775 299.733 20 297.5 20C295.267 20 293.375 20.775 291.825 22.325C290.275 23.875 289.5 25.7667 289.5 28C289.5 30.2333 290.275 32.125 291.825 33.675C293.375 35.225 295.267 36 297.5 36Z" fill="#49454F"/>
</g>
<defs>
<clipPath id="clip0_101_395">
<rect x="269.5" width="56" height="56" rx="28" fill="white"/>
</clipPath>
</defs>
</svg>
